<svg width="20" height="20" viewBox="0 0 20 20" fill="none" xmlns="http://www.w3.org/2000/svg">
<g clip-path="url(#clip0_499_16614)">
<path d="M16.6638 10.8321C16.6638 14.9983 13.7475 17.0814 10.2812 18.2896C10.0997 18.3511 9.90254 18.3481 9.72295 18.2812C6.24836 17.0814 3.33203 14.9983 3.33203 10.8321V4.99946C3.33203 4.77847 3.41982 4.56653 3.57608 4.41027C3.73234 4.25401 3.94428 4.16622 4.16527 4.16622C5.83174 4.16622 7.91483 3.16634 9.36466 1.89982C9.54118 1.749 9.76574 1.66614 9.99792 1.66614C10.2301 1.66614 10.4547 1.749 10.6312 1.89982C12.0893 3.17467 14.1641 4.16622 15.8306 4.16622C16.0516 4.16622 16.2635 4.25401 16.4198 4.41027C16.576 4.56653 16.6638 4.77847 16.6638 4.99946V10.8321Z" stroke="#6B7280" stroke-width="1.66647" stroke-linecap="round" stroke-linejoin="round"/>
</g>
<defs>
<clipPath id="clip0_499_16614">
<rect width="19.9977" height="19.9977" fill="white"/>
</clipPath>
</defs>
</svg>
