<svg width="20" height="20" viewBox="0 0 20 20" fill="none" xmlns="http://www.w3.org/2000/svg">
<path d="M16.665 6.66577H3.33324C2.87305 6.66577 2.5 7.03882 2.5 7.49901V9.16548C2.5 9.62566 2.87305 9.99871 3.33324 9.99871H16.665C17.1252 9.99871 17.4982 9.62566 17.4982 9.16548V7.49901C17.4982 7.03882 17.1252 6.66577 16.665 6.66577Z" stroke="#6B7280" stroke-width="1.66647" stroke-linecap="round" stroke-linejoin="round"/>
<path d="M9.99805 6.66577V17.4978" stroke="#6B7280" stroke-width="1.66647" stroke-linecap="round" stroke-linejoin="round"/>
<path d="M15.8313 9.99878V15.8314C15.8313 16.2734 15.6557 16.6973 15.3432 17.0098C15.0307 17.3223 14.6068 17.4979 14.1648 17.4979H5.83249C5.39051 17.4979 4.96664 17.3223 4.65411 17.0098C4.34159 16.6973 4.16602 16.2734 4.16602 15.8314V9.99878" stroke="#6B7280" stroke-width="1.66647" stroke-linecap="round" stroke-linejoin="round"/>
<path d="M6.2491 6.66581C5.69664 6.66581 5.16679 6.44634 4.77614 6.05569C4.38548 5.66503 4.16602 5.13519 4.16602 4.58272C4.16602 4.03025 4.38548 3.50041 4.77614 3.10975C5.16679 2.7191 5.69664 2.49963 6.2491 2.49963C7.05292 2.48563 7.84061 2.87564 8.50945 3.6188C9.1783 4.36197 9.69726 5.42379 9.99867 6.66581C10.3001 5.42379 10.819 4.36197 11.4879 3.6188C12.1567 2.87564 12.9444 2.48563 13.7482 2.49963C14.3007 2.49963 14.8305 2.7191 15.2212 3.10975C15.6118 3.50041 15.8313 4.03025 15.8313 4.58272C15.8313 5.13519 15.6118 5.66503 15.2212 6.05569C14.8305 6.44634 14.3007 6.66581 13.7482 6.66581" stroke="#6B7280" stroke-width="1.66647" stroke-linecap="round" stroke-linejoin="round"/>
</svg>
