<svg width="20" height="20" viewBox="0 0 20 20" fill="none" xmlns="http://www.w3.org/2000/svg">
<path d="M16.6639 8.33241C16.8849 8.33241 17.0969 8.24462 17.2531 8.08836C17.4094 7.93209 17.4972 7.72016 17.4972 7.49917V4.99946C17.4972 4.77848 17.4094 4.56654 17.2531 4.41028C17.0969 4.25401 16.8849 4.16623 16.6639 4.16623H14.5808C14.4515 4.16623 14.3239 4.13611 14.2082 4.07826C14.0925 4.02041 13.9919 3.93642 13.9143 3.83293L13.1643 2.83305C13.0867 2.72957 12.9861 2.64557 12.8704 2.58772C12.7547 2.52987 12.6271 2.49976 12.4978 2.49976H10.8313C10.6103 2.49976 10.3984 2.58754 10.2421 2.7438C10.0858 2.90007 9.99805 3.112 9.99805 3.33299V7.49917C9.99805 7.72016 10.0858 7.93209 10.2421 8.08836C10.3984 8.24462 10.6103 8.33241 10.8313 8.33241H16.6639Z" stroke="#6B7280" stroke-width="1.66647" stroke-linecap="round" stroke-linejoin="round"/>
<path d="M16.6639 17.4979C16.8849 17.4979 17.0969 17.4102 17.2531 17.2539C17.4094 17.0976 17.4972 16.8857 17.4972 16.6647V14.165C17.4972 13.944 17.4094 13.7321 17.2531 13.5758C17.0969 13.4195 16.8849 13.3318 16.6639 13.3318H14.2475C14.0951 13.3298 13.9461 13.286 13.8168 13.2052C13.6875 13.1244 13.5829 13.0096 13.5143 12.8735L13.1643 12.1652C13.0993 12.0162 12.9921 11.8894 12.8558 11.8006C12.7196 11.7118 12.5604 11.6647 12.3978 11.6653H10.8313C10.6103 11.6653 10.3984 11.7531 10.2421 11.9093C10.0858 12.0656 9.99805 12.2775 9.99805 12.4985V16.6647C9.99805 16.8857 10.0858 17.0976 10.2421 17.2539C10.3984 17.4102 10.6103 17.4979 10.8313 17.4979H16.6639Z" stroke="#6B7280" stroke-width="1.66647" stroke-linecap="round" stroke-linejoin="round"/>
<path d="M2.5 4.16626C2.5 4.60824 2.67557 5.03211 2.9881 5.34463C3.30062 5.65716 3.7245 5.83273 4.16647 5.83273H6.66618" stroke="#6B7280" stroke-width="1.66647" stroke-linecap="round" stroke-linejoin="round"/>
<path d="M2.5 2.49976V13.3318C2.5 13.7738 2.67557 14.1977 2.9881 14.5102C3.30062 14.8227 3.7245 14.9983 4.16647 14.9983H6.66618" stroke="#6B7280" stroke-width="1.66647" stroke-linecap="round" stroke-linejoin="round"/>
</svg>
