<svg width="20" height="20" viewBox="0 0 20 20" fill="none" xmlns="http://www.w3.org/2000/svg">
<path d="M7.49941 2.49976H3.33324C2.87305 2.49976 2.5 2.87281 2.5 3.33299V9.16564C2.5 9.62583 2.87305 9.99888 3.33324 9.99888H7.49941C7.9596 9.99888 8.33265 9.62583 8.33265 9.16564V3.33299C8.33265 2.87281 7.9596 2.49976 7.49941 2.49976Z" stroke="#6B7280" stroke-width="1.66647" stroke-linecap="round" stroke-linejoin="round"/>
<path d="M16.6654 2.49976H12.4993C12.0391 2.49976 11.666 2.87281 11.666 3.33299V5.8327C11.666 6.29288 12.0391 6.66593 12.4993 6.66593H16.6654C17.1256 6.66593 17.4987 6.29288 17.4987 5.8327V3.33299C17.4987 2.87281 17.1256 2.49976 16.6654 2.49976Z" stroke="#6B7280" stroke-width="1.66647" stroke-linecap="round" stroke-linejoin="round"/>
<path d="M16.6654 9.99878H12.4993C12.0391 9.99878 11.666 10.3718 11.666 10.832V16.6647C11.666 17.1248 12.0391 17.4979 12.4993 17.4979H16.6654C17.1256 17.4979 17.4987 17.1248 17.4987 16.6647V10.832C17.4987 10.3718 17.1256 9.99878 16.6654 9.99878Z" stroke="#6B7280" stroke-width="1.66647" stroke-linecap="round" stroke-linejoin="round"/>
<path d="M7.49941 13.3318H3.33324C2.87305 13.3318 2.5 13.7048 2.5 14.165V16.6647C2.5 17.1249 2.87305 17.498 3.33324 17.498H7.49941C7.9596 17.498 8.33265 17.1249 8.33265 16.6647V14.165C8.33265 13.7048 7.9596 13.3318 7.49941 13.3318Z" stroke="#6B7280" stroke-width="1.66647" stroke-linecap="round" stroke-linejoin="round"/>
</svg>
