<svg width="20" height="20" viewBox="0 0 20 20" fill="none" xmlns="http://www.w3.org/2000/svg">
<g clip-path="url(#clip0_499_16557)">
<path d="M6.66527 18.3313C7.12545 18.3313 7.4985 17.9582 7.4985 17.498C7.4985 17.0378 7.12545 16.6648 6.66527 16.6648C6.20508 16.6648 5.83203 17.0378 5.83203 17.498C5.83203 17.9582 6.20508 18.3313 6.66527 18.3313Z" stroke="#6B7280" stroke-width="1.66647" stroke-linecap="round" stroke-linejoin="round"/>
<path d="M15.8313 18.3313C16.2915 18.3313 16.6645 17.9582 16.6645 17.498C16.6645 17.0378 16.2915 16.6648 15.8313 16.6648C15.3711 16.6648 14.998 17.0378 14.998 17.498C14.998 17.9582 15.3711 18.3313 15.8313 18.3313Z" stroke="#6B7280" stroke-width="1.66647" stroke-linecap="round" stroke-linejoin="round"/>
<path d="M1.70898 1.70801H3.37546L5.59186 12.0568C5.67317 12.4358 5.88405 12.7746 6.18822 13.0149C6.49238 13.2552 6.8708 13.3819 7.25833 13.3733H15.4074C15.7866 13.3727 16.1544 13.2427 16.4498 13.0049C16.7452 12.767 16.9506 12.4355 17.0322 12.0651L18.407 5.87419H4.26702" stroke="#6B7280" stroke-width="1.66647" stroke-linecap="round" stroke-linejoin="round"/>
</g>
<defs>
<clipPath id="clip0_499_16557">
<rect width="19.9977" height="19.9977" fill="white"/>
</clipPath>
</defs>
</svg>
