<svg width="20" height="20" viewBox="0 0 20 20" fill="none" xmlns="http://www.w3.org/2000/svg">
<g clip-path="url(#clip0_499_16589)">
<path d="M9.60213 1.91234C9.63865 1.83857 9.69505 1.77647 9.76499 1.73305C9.83492 1.68963 9.9156 1.66663 9.99792 1.66663C10.0802 1.66663 10.1609 1.68963 10.2308 1.73305C10.3008 1.77647 10.3572 1.83857 10.3937 1.91234L12.3185 5.81105C12.4453 6.06766 12.6325 6.28967 12.8639 6.45802C13.0954 6.62637 13.3643 6.73604 13.6475 6.77761L17.952 7.40753C18.0335 7.41935 18.1102 7.45375 18.1732 7.50685C18.2362 7.55995 18.2831 7.62963 18.3086 7.708C18.3341 7.78637 18.3372 7.87032 18.3174 7.95033C18.2977 8.03035 18.256 8.10324 18.197 8.16078L15.084 11.1921C14.8787 11.3921 14.7251 11.6391 14.6364 11.9117C14.5477 12.1843 14.5266 12.4743 14.5749 12.7569L15.3098 17.0397C15.3242 17.1213 15.3154 17.2052 15.2844 17.2819C15.2534 17.3587 15.2014 17.4252 15.1344 17.4738C15.0675 17.5225 14.9881 17.5513 14.9056 17.5571C14.823 17.5628 14.7404 17.5453 14.6674 17.5063L10.8195 15.4833C10.5659 15.3501 10.2839 15.2806 9.9975 15.2806C9.71114 15.2806 9.42905 15.3501 9.17551 15.4833L5.32847 17.5063C5.25542 17.545 5.17298 17.5624 5.09054 17.5566C5.00809 17.5507 4.92894 17.5218 4.8621 17.4732C4.79526 17.4246 4.7434 17.3582 4.71242 17.2816C4.68144 17.2049 4.67259 17.1211 4.68687 17.0397L5.42096 12.7577C5.46945 12.475 5.44844 12.1848 5.35974 11.912C5.27105 11.6393 5.11733 11.3922 4.91185 11.1921L1.79888 8.16161C1.73938 8.10414 1.69722 8.03112 1.6772 7.95086C1.65717 7.8706 1.66009 7.78634 1.68563 7.70766C1.71116 7.62898 1.75827 7.55905 1.82161 7.50584C1.88494 7.45263 1.96195 7.41828 2.04385 7.4067L6.34751 6.77761C6.63103 6.73636 6.90027 6.62684 7.13207 6.45847C7.36388 6.29009 7.55129 6.06791 7.67819 5.81105L9.60213 1.91234Z" stroke="#6B7280" stroke-width="1.66647" stroke-linecap="round" stroke-linejoin="round"/>
</g>
<defs>
<clipPath id="clip0_499_16589">
<rect width="19.9977" height="19.9977" fill="white"/>
</clipPath>
</defs>
</svg>
