<svg width="20" height="20" viewBox="0 0 20 20" fill="none" xmlns="http://www.w3.org/2000/svg">
<g clip-path="url(#clip0_499_16606)">
<path d="M10.1815 1.6665H9.81483C9.37286 1.6665 8.94898 1.84208 8.63646 2.1546C8.32394 2.46713 8.14836 2.891 8.14836 3.33298V3.48296C8.14806 3.77519 8.07092 4.06221 7.92467 4.31522C7.77842 4.56823 7.56821 4.77834 7.31513 4.92446L6.95683 5.13276C6.7035 5.27903 6.41613 5.35603 6.1236 5.35603C5.83107 5.35603 5.5437 5.27903 5.29036 5.13276L5.16538 5.06611C4.78298 4.84552 4.32867 4.78568 3.90219 4.89972C3.47571 5.01376 3.11191 5.29236 2.89064 5.67437L2.70733 5.991C2.48674 6.3734 2.4269 6.8277 2.54094 7.25418C2.65498 7.68066 2.93359 8.04446 3.31559 8.26573L3.44058 8.34905C3.69245 8.49446 3.90188 8.70325 4.04805 8.95468C4.19423 9.2061 4.27206 9.4914 4.27382 9.78222V10.2072C4.27498 10.5008 4.19853 10.7896 4.05221 11.0442C3.90589 11.2988 3.69489 11.5102 3.44058 11.657L3.31559 11.732C2.93359 11.9533 2.65498 12.3171 2.54094 12.7435C2.4269 13.17 2.48674 13.6243 2.70733 14.0067L2.89064 14.3234C3.11191 14.7054 3.47571 14.984 3.90219 15.098C4.32867 15.212 4.78298 15.1522 5.16538 14.9316L5.29036 14.865C5.5437 14.7187 5.83107 14.6417 6.1236 14.6417C6.41613 14.6417 6.7035 14.7187 6.95683 14.865L7.31513 15.0733C7.56821 15.2194 7.77842 15.4295 7.92467 15.6825C8.07092 15.9355 8.14806 16.2225 8.14836 16.5148V16.6647C8.14836 17.1067 8.32394 17.5306 8.63646 17.8431C8.94898 18.1556 9.37286 18.3312 9.81483 18.3312H10.1815C10.6234 18.3312 11.0473 18.1556 11.3598 17.8431C11.6724 17.5306 11.8479 17.1067 11.8479 16.6647V16.5148C11.8482 16.2225 11.9254 15.9355 12.0716 15.6825C12.2179 15.4295 12.4281 15.2194 12.6812 15.0733L13.0395 14.865C13.2928 14.7187 13.5802 14.6417 13.8727 14.6417C14.1652 14.6417 14.4526 14.7187 14.7059 14.865L14.8309 14.9316C15.2133 15.1522 15.6676 15.212 16.0941 15.098C16.5206 14.984 16.8844 14.7054 17.1056 14.3234L17.289 13.9984C17.5095 13.616 17.5694 13.1617 17.4553 12.7352C17.3413 12.3087 17.0627 11.9449 16.6807 11.7237L16.5557 11.657C16.3014 11.5102 16.0904 11.2988 15.9441 11.0442C15.7978 10.7896 15.7213 10.5008 15.7225 10.2072V9.79055C15.7213 9.4969 15.7978 9.20816 15.9441 8.95356C16.0904 8.69896 16.3014 8.48755 16.5557 8.34072L16.6807 8.26573C17.0627 8.04446 17.3413 7.68066 17.4553 7.25418C17.5694 6.8277 17.5095 6.3734 17.289 5.991L17.1056 5.67437C16.8844 5.29236 16.5206 5.01376 16.0941 4.89972C15.6676 4.78568 15.2133 4.84552 14.8309 5.06611L14.7059 5.13276C14.4526 5.27903 14.1652 5.35603 13.8727 5.35603C13.5802 5.35603 13.2928 5.27903 13.0395 5.13276L12.6812 4.92446C12.4281 4.77834 12.2179 4.56823 12.0716 4.31522C11.9254 4.06221 11.8482 3.77519 11.8479 3.48296V3.33298C11.8479 2.891 11.6724 2.46713 11.3598 2.1546C11.0473 1.84208 10.6234 1.6665 10.1815 1.6665Z" stroke="#6B7280" stroke-width="1.66647" stroke-linecap="round" stroke-linejoin="round"/>
<path d="M9.99971 12.4986C11.3803 12.4986 12.4994 11.3794 12.4994 9.99885C12.4994 8.6183 11.3803 7.49915 9.99971 7.49915C8.61916 7.49915 7.5 8.6183 7.5 9.99885C7.5 11.3794 8.61916 12.4986 9.99971 12.4986Z" stroke="#6B7280" stroke-width="1.66647" stroke-linecap="round" stroke-linejoin="round"/>
</g>
<defs>
<clipPath id="clip0_499_16606">
<rect width="19.9977" height="19.9977" fill="white"/>
</clipPath>
</defs>
</svg>
