<svg width="20" height="20" viewBox="0 0 20 20" fill="none" xmlns="http://www.w3.org/2000/svg">
<g clip-path="url(#clip0_499_16568)">
<path d="M13.3313 17.4979V15.8315C13.3313 14.9475 12.9802 14.0998 12.3551 13.4747C11.7301 12.8497 10.8823 12.4985 9.99837 12.4985H4.99896C4.11501 12.4985 3.26726 12.8497 2.64221 13.4747C2.01716 14.0998 1.66602 14.9475 1.66602 15.8315V17.4979" stroke="#6B7280" stroke-width="1.66647" stroke-linecap="round" stroke-linejoin="round"/>
<path d="M13.332 2.60632C14.0467 2.79161 14.6797 3.20897 15.1316 3.7929C15.5834 4.37683 15.8286 5.09427 15.8286 5.83261C15.8286 6.57095 15.5834 7.28839 15.1316 7.87232C14.6797 8.45625 14.0467 8.87361 13.332 9.0589" stroke="#6B7280" stroke-width="1.66647" stroke-linecap="round" stroke-linejoin="round"/>
<path d="M18.3317 17.4979V15.8314C18.3312 15.093 18.0854 14.3756 17.633 13.7919C17.1805 13.2083 16.5471 12.7914 15.832 12.6068" stroke="#6B7280" stroke-width="1.66647" stroke-linecap="round" stroke-linejoin="round"/>
<path d="M7.49896 9.16564C9.33969 9.16564 10.8319 7.67343 10.8319 5.8327C10.8319 3.99197 9.33969 2.49976 7.49896 2.49976C5.65822 2.49976 4.16602 3.99197 4.16602 5.8327C4.16602 7.67343 5.65822 9.16564 7.49896 9.16564Z" stroke="#6B7280" stroke-width="1.66647" stroke-linecap="round" stroke-linejoin="round"/>
</g>
<defs>
<clipPath id="clip0_499_16568">
<rect width="19.9977" height="19.9977" fill="white"/>
</clipPath>
</defs>
</svg>
