<svg width="20" height="20" viewBox="0 0 20 20" fill="none" xmlns="http://www.w3.org/2000/svg">
<path d="M8.55469 17.4979C8.70096 17.7512 8.91133 17.9616 9.16465 18.1078C9.41798 18.2541 9.70534 18.3311 9.99785 18.3311C10.2904 18.3311 10.5777 18.2541 10.8311 18.1078C11.0844 17.9616 11.2947 17.7512 11.441 17.4979" stroke="#6B7280" stroke-width="1.66647" stroke-linecap="round" stroke-linejoin="round"/>
<path d="M2.7177 12.7702C2.60885 12.8895 2.53702 13.0379 2.51094 13.1973C2.48486 13.3566 2.50566 13.5202 2.5708 13.6679C2.63595 13.8157 2.74264 13.9414 2.87789 14.0296C3.01314 14.1179 3.17113 14.1649 3.33263 14.165H16.6644C16.8259 14.1651 16.9839 14.1182 17.1192 14.0301C17.2546 13.9421 17.3614 13.8165 17.4267 13.6689C17.492 13.5212 17.513 13.3577 17.4872 13.1983C17.4613 13.0389 17.3897 12.8905 17.281 12.771C16.1728 11.6287 14.9979 10.4146 14.9979 6.66592C14.9979 5.33999 14.4712 4.06837 13.5336 3.1308C12.5961 2.19323 11.3244 1.6665 9.99851 1.6665C8.67259 1.6665 7.40097 2.19323 6.46339 3.1308C5.52582 4.06837 4.9991 5.33999 4.9991 6.66592C4.9991 10.4146 3.8234 11.6287 2.7177 12.7702Z" stroke="#6B7280" stroke-width="1.66647" stroke-linecap="round" stroke-linejoin="round"/>
</svg>
