<svg width="16" height="16" viewBox="0 0 16 16" fill="none" xmlns="http://www.w3.org/2000/svg">
<path d="M2 7.99674C2 9.18297 2.35176 10.3426 3.0108 11.3289C3.66983 12.3152 4.60655 13.0839 5.70249 13.5379C6.79843 13.9919 8.00437 14.1106 9.16781 13.8792C10.3313 13.6478 11.3999 13.0766 12.2387 12.2378C13.0775 11.399 13.6488 10.3303 13.8802 9.16683C14.1116 8.00339 13.9928 6.79745 13.5389 5.70151C13.0849 4.60557 12.3162 3.66886 11.3299 3.00982C10.3435 2.35078 9.18395 1.99902 7.99771 1.99902C6.32099 2.00533 4.71161 2.65959 3.50609 3.82499L2 5.33109" stroke="#155DFC" stroke-width="1.33283" stroke-linecap="round" stroke-linejoin="round"/>
<path d="M2 1.99902V5.33109H5.33206" stroke="#155DFC" stroke-width="1.33283" stroke-linecap="round" stroke-linejoin="round"/>
</svg>
