<svg width="20" height="20" viewBox="0 0 20 20" fill="none" xmlns="http://www.w3.org/2000/svg">
<path d="M17.7344 1.56708C17.9188 1.56708 18.0961 1.63979 18.2266 1.7702C18.357 1.90064 18.4297 2.07792 18.4297 2.26239C18.4296 2.44667 18.3568 2.62323 18.2266 2.7536L10.9814 10.0007L18.2295 17.2458C18.3599 17.3762 18.4336 17.5535 18.4336 17.738C18.4335 17.9223 18.3597 18.0988 18.2295 18.2292C18.0991 18.3596 17.9218 18.4333 17.7373 18.4333C17.5529 18.4332 17.3765 18.3596 17.2461 18.2292L9.99805 10.985L2.75391 18.2292C2.68934 18.2938 2.61272 18.3456 2.52832 18.3806C2.44396 18.4155 2.35303 18.4333 2.26172 18.4333C2.17058 18.4332 2.0803 18.4154 1.99609 18.3806C1.9117 18.3456 1.83507 18.2938 1.77051 18.2292C1.64102 18.0989 1.56836 17.9226 1.56836 17.739C1.56841 17.5554 1.64107 17.3789 1.77051 17.2487L9.01465 10.0007L1.77051 2.7536L1.76465 2.74872C1.65077 2.61573 1.59188 2.44418 1.59863 2.26923C1.60542 2.09431 1.67798 1.92817 1.80176 1.80438C1.92555 1.6807 2.09173 1.60801 2.2666 1.60126C2.39762 1.59625 2.5264 1.62873 2.63867 1.69305L2.74512 1.76825L2.75098 1.77313L9.99805 9.01727L17.2432 1.7702C17.3735 1.64 17.5501 1.56715 17.7344 1.56708Z" fill="#686868" stroke="#686868" stroke-width="0.2"/>
</svg>
