<svg width="48" height="48" viewBox="0 0 48 48" fill="none" xmlns="http://www.w3.org/2000/svg">
<path d="M0 23.9961C0 10.7434 10.7434 0 23.9961 0C37.2488 0 47.9923 10.7434 47.9923 23.9961C47.9923 37.2488 37.2488 47.9923 23.9961 47.9923C10.7434 47.9923 0 37.2488 0 23.9961Z" fill="#00C950" fill-opacity="0.1"/>
<path d="M22.995 33.7224C23.2989 33.8978 23.6437 33.9902 23.9946 33.9902C24.3456 33.9902 24.6903 33.8978 24.9942 33.7224L31.9916 29.7239C32.2952 29.5486 32.5474 29.2966 32.7228 28.993C32.8983 28.6895 32.9908 28.3452 32.9912 27.9946V19.9976C32.9908 19.647 32.8983 19.3027 32.7228 18.9992C32.5474 18.6956 32.2952 18.4436 31.9916 18.2683L24.9942 14.2698C24.6903 14.0943 24.3456 14.002 23.9946 14.002C23.6437 14.002 23.2989 14.0943 22.995 14.2698L15.9977 18.2683C15.694 18.4436 15.4419 18.6956 15.2664 18.9992C15.091 19.3027 14.9984 19.647 14.998 19.9976V27.9946C14.9984 28.3452 15.091 28.6895 15.2664 28.993C15.4419 29.2966 15.694 29.5486 15.9977 29.7239L22.995 33.7224Z" stroke="#00A63E" stroke-width="1.99924" stroke-linecap="round" stroke-linejoin="round"/>
<path d="M23.9961 33.9923V23.9961" stroke="#00A63E" stroke-width="1.99924" stroke-linecap="round" stroke-linejoin="round"/>
<path d="M15.2891 18.998L23.9957 23.9961L32.7024 18.998" stroke="#00A63E" stroke-width="1.99924" stroke-linecap="round" stroke-linejoin="round"/>
<path d="M19.498 16.2695L28.4946 21.4176" stroke="#00A63E" stroke-width="1.99924" stroke-linecap="round" stroke-linejoin="round"/>
</svg>
