<svg width="16" height="16" viewBox="0 0 16 16" fill="none" xmlns="http://www.w3.org/2000/svg">
<g clip-path="url(#clip0_499_17345)">
<path d="M7.99609 1.33289V14.6611" stroke="#6B7280" stroke-width="1.33283" stroke-linecap="round" stroke-linejoin="round"/>
<path d="M11.3286 3.33203H6.33049C5.71189 3.33203 5.11862 3.57777 4.6812 4.01519C4.24379 4.45261 3.99805 5.04587 3.99805 5.66447C3.99805 6.28308 4.24379 6.87634 4.6812 7.31376C5.11862 7.75118 5.71189 7.99692 6.33049 7.99692H9.66255C10.2812 7.99692 10.8744 8.24266 11.3118 8.68008C11.7493 9.11749 11.995 9.71076 11.995 10.3294C11.995 10.948 11.7493 11.5412 11.3118 11.9786C10.8744 12.4161 10.2812 12.6618 9.66255 12.6618H3.99805" stroke="#6B7280" stroke-width="1.33283" stroke-linecap="round" stroke-linejoin="round"/>
</g>
<defs>
<clipPath id="clip0_499_17345">
<rect width="15.9939" height="15.9939" fill="white"/>
</clipPath>
</defs>
</svg>
