<svg width="16" height="16" viewBox="0 0 16 16" fill="none" xmlns="http://www.w3.org/2000/svg">
<path d="M7.99771 1.99902H3.33283C2.97934 1.99902 2.64033 2.13945 2.39038 2.3894C2.14042 2.63935 2 2.97836 2 3.33185V12.6616C2 13.0151 2.14042 13.3541 2.39038 13.6041C2.64033 13.854 2.97934 13.9944 3.33283 13.9944H12.6626C13.0161 13.9944 13.3551 13.854 13.605 13.6041C13.855 13.3541 13.9954 13.0151 13.9954 12.6616V7.99674" stroke="#2D3748" stroke-width="1.33283" stroke-linecap="round" stroke-linejoin="round"/>
<path d="M12.2448 1.74902C12.5099 1.4839 12.8695 1.33496 13.2444 1.33496C13.6194 1.33496 13.9789 1.4839 14.2441 1.74902C14.5092 2.01413 14.6581 2.37371 14.6581 2.74864C14.6581 3.12356 14.5092 3.48314 14.2441 3.74825L8.23768 9.7553C8.07944 9.9134 7.88395 10.0291 7.66923 10.0918L5.75463 10.6516C5.69729 10.6683 5.6365 10.6693 5.57864 10.6545C5.52077 10.6397 5.46796 10.6096 5.42572 10.5674C5.38348 10.5251 5.35337 10.4723 5.33855 10.4144C5.32373 10.3566 5.32473 10.2958 5.34145 10.2384L5.90124 8.32384C5.96423 8.10929 6.08019 7.91404 6.23844 7.75606L12.2448 1.74902Z" stroke="#2D3748" stroke-width="1.33283" stroke-linecap="round" stroke-linejoin="round"/>
</svg>
