<svg width="16" height="16" viewBox="0 0 16 16" fill="none" xmlns="http://www.w3.org/2000/svg">
<path d="M7.99771 1.99927H3.33283C2.97934 1.99927 2.64033 2.13969 2.39038 2.38964C2.14042 2.6396 2 2.97861 2 3.33209V12.6619C2 13.0154 2.14042 13.3544 2.39038 13.6043C2.64033 13.8543 2.97934 13.9947 3.33283 13.9947H12.6626C13.0161 13.9947 13.3551 13.8543 13.605 13.6043C13.855 13.3544 13.9954 13.0154 13.9954 12.6619V7.99698" stroke="white" stroke-width="1.33283" stroke-linecap="round" stroke-linejoin="round"/>
<path d="M12.2448 1.74938C12.5099 1.48427 12.8695 1.33533 13.2444 1.33533C13.6194 1.33533 13.9789 1.48427 14.2441 1.74938C14.5092 2.0145 14.6581 2.37407 14.6581 2.749C14.6581 3.12393 14.5092 3.4835 14.2441 3.74862L8.23768 9.75566C8.07944 9.91377 7.88395 10.0295 7.66923 10.0922L5.75463 10.652C5.69729 10.6687 5.6365 10.6697 5.57864 10.6549C5.52077 10.6401 5.46796 10.61 5.42572 10.5677C5.38348 10.5255 5.35337 10.4727 5.33855 10.4148C5.32373 10.3569 5.32473 10.2962 5.34145 10.2388L5.90124 8.32421C5.96423 8.10966 6.08019 7.9144 6.23844 7.75643L12.2448 1.74938Z" stroke="white" stroke-width="1.33283" stroke-linecap="round" stroke-linejoin="round"/>
</svg>
