<svg width="16" height="16" viewBox="0 0 16 16" fill="none" xmlns="http://www.w3.org/2000/svg">
<g clip-path="url(#clip0_500_9241)">
<path d="M1.37369 8.22891C1.31815 8.07929 1.31815 7.9147 1.37369 7.76508C1.91461 6.45349 2.83281 5.33204 4.01186 4.54291C5.19091 3.75379 6.57773 3.33252 7.99649 3.33252C9.41526 3.33252 10.8021 3.75379 11.9811 4.54291C13.1602 5.33204 14.0784 6.45349 14.6193 7.76508C14.6748 7.9147 14.6748 8.07929 14.6193 8.22891C14.0784 9.5405 13.1602 10.662 11.9811 11.4511C10.8021 12.2402 9.41526 12.6615 7.99649 12.6615C6.57773 12.6615 5.19091 12.2402 4.01186 11.4511C2.83281 10.662 1.91461 9.5405 1.37369 8.22891Z" stroke="#2D3748" stroke-width="1.33283" stroke-linecap="round" stroke-linejoin="round"/>
<path d="M7.99728 9.99603C9.10143 9.99603 9.99652 9.10094 9.99652 7.9968C9.99652 6.89265 9.10143 5.99756 7.99728 5.99756C6.89314 5.99756 5.99805 6.89265 5.99805 7.9968C5.99805 9.10094 6.89314 9.99603 7.99728 9.99603Z" stroke="#2D3748" stroke-width="1.33283" stroke-linecap="round" stroke-linejoin="round"/>
</g>
<defs>
<clipPath id="clip0_500_9241">
<rect width="15.9939" height="15.9939" fill="white"/>
</clipPath>
</defs>
</svg>
