<svg width="16" height="16" viewBox="0 0 16 16" fill="none" xmlns="http://www.w3.org/2000/svg">
<path d="M7.99649 8.66339C8.36454 8.66339 8.6629 8.36503 8.6629 7.99698C8.6629 7.62893 8.36454 7.33057 7.99649 7.33057C7.62844 7.33057 7.33008 7.62893 7.33008 7.99698C7.33008 8.36503 7.62844 8.66339 7.99649 8.66339Z" stroke="#2D3748" stroke-width="1.33283" stroke-linecap="round" stroke-linejoin="round"/>
<path d="M7.99649 3.99835C8.36454 3.99835 8.6629 3.69999 8.6629 3.33194C8.6629 2.96389 8.36454 2.66553 7.99649 2.66553C7.62844 2.66553 7.33008 2.96389 7.33008 3.33194C7.33008 3.69999 7.62844 3.99835 7.99649 3.99835Z" stroke="#2D3748" stroke-width="1.33283" stroke-linecap="round" stroke-linejoin="round"/>
<path d="M7.99649 13.3284C8.36454 13.3284 8.6629 13.0301 8.6629 12.662C8.6629 12.294 8.36454 11.9956 7.99649 11.9956C7.62844 11.9956 7.33008 12.294 7.33008 12.662C7.33008 13.0301 7.62844 13.3284 7.99649 13.3284Z" stroke="#2D3748" stroke-width="1.33283" stroke-linecap="round" stroke-linejoin="round"/>
</svg>
