<svg width="16" height="16" viewBox="0 0 16 16" fill="none" xmlns="http://www.w3.org/2000/svg">
<path d="M7.68081 1.52941C7.71001 1.4704 7.75513 1.42074 7.81106 1.38601C7.86699 1.35129 7.93152 1.33289 7.99736 1.33289C8.06319 1.33289 8.12772 1.35129 8.18365 1.38601C8.23958 1.42074 8.2847 1.4704 8.3139 1.52941L9.85331 4.64755C9.95473 4.85278 10.1044 5.03034 10.2896 5.16499C10.4747 5.29963 10.6897 5.38734 10.9162 5.42059L14.3589 5.9244C14.4242 5.93385 14.4854 5.96136 14.5359 6.00383C14.5863 6.0463 14.6238 6.10203 14.6442 6.16471C14.6646 6.22739 14.667 6.29453 14.6512 6.35852C14.6354 6.42252 14.602 6.48082 14.5549 6.52683L12.0651 8.95124C11.9009 9.11125 11.7781 9.30876 11.7072 9.52678C11.6362 9.74479 11.6193 9.97678 11.658 10.2028L12.2457 13.6281C12.2573 13.6933 12.2502 13.7605 12.2254 13.8218C12.2006 13.8832 12.1591 13.9364 12.1055 13.9753C12.0519 14.0142 11.9885 14.0373 11.9224 14.0419C11.8564 14.0465 11.7904 14.0324 11.7319 14.0013L8.65444 12.3833C8.45166 12.2768 8.22606 12.2212 7.99702 12.2212C7.76799 12.2212 7.54238 12.2768 7.33961 12.3833L4.26278 14.0013C4.20436 14.0322 4.13843 14.0462 4.07249 14.0415C4.00655 14.0368 3.94325 14.0137 3.88979 13.9748C3.83632 13.9359 3.79485 13.8828 3.77007 13.8215C3.7453 13.7602 3.73822 13.6932 3.74964 13.6281L4.33675 10.2034C4.37553 9.97734 4.35873 9.74521 4.2878 9.52705C4.21686 9.3089 4.09392 9.11128 3.92957 8.95124L1.43986 6.5275C1.39227 6.48154 1.35855 6.42314 1.34254 6.35895C1.32652 6.29476 1.32886 6.22736 1.34928 6.16443C1.3697 6.10151 1.40738 6.04558 1.45803 6.00302C1.50869 5.96047 1.57028 5.93299 1.63578 5.92373L5.0778 5.42059C5.30455 5.3876 5.51989 5.30001 5.70529 5.16534C5.89068 5.03068 6.04057 4.85299 6.14206 4.64755L7.68081 1.52941Z" stroke="#6B7280" stroke-width="1.33283" stroke-linecap="round" stroke-linejoin="round"/>
</svg>
