<svg width="48" height="48" viewBox="0 0 48 48" fill="none" xmlns="http://www.w3.org/2000/svg">
<path d="M0 23.9961C0 10.7434 10.7434 0 23.9961 0C37.2488 0 47.9923 10.7434 47.9923 23.9961C47.9923 37.2488 37.2488 47.9923 23.9961 47.9923C10.7434 47.9923 0 37.2488 0 23.9961Z" fill="#00C950" fill-opacity="0.1"/>
<path d="M23.9962 33.9924C29.5169 33.9924 33.9924 29.5169 33.9924 23.9962C33.9924 18.4754 29.5169 14 23.9962 14C18.4754 14 14 18.4754 14 23.9962C14 29.5169 18.4754 33.9924 23.9962 33.9924Z" stroke="#00A63E" stroke-width="1.99924" stroke-linecap="round" stroke-linejoin="round"/>
<path d="M20.9961 23.9963L22.9953 25.9955L26.9938 21.9971" stroke="#00A63E" stroke-width="1.99924" stroke-linecap="round" stroke-linejoin="round"/>
</svg>
