<svg width="16" height="16" viewBox="0 0 16 16" fill="none" xmlns="http://www.w3.org/2000/svg">
<g clip-path="url(#clip0_499_17374)">
<path d="M7.3313 14.4812C7.53392 14.5982 7.76375 14.6597 7.99771 14.6597C8.23167 14.6597 8.46151 14.5982 8.66413 14.4812L13.329 11.8155C13.5314 11.6987 13.6996 11.5306 13.8165 11.3283C13.9335 11.1259 13.9952 10.8964 13.9954 10.6626V5.33134C13.9952 5.09761 13.9335 4.86805 13.8165 4.6657C13.6996 4.46334 13.5314 4.29531 13.329 4.17844L8.66413 1.51279C8.46151 1.39581 8.23167 1.33423 7.99771 1.33423C7.76375 1.33423 7.53392 1.39581 7.3313 1.51279L2.66641 4.17844C2.464 4.29531 2.29587 4.46334 2.17891 4.6657C2.06194 4.86805 2.00024 5.09761 2 5.33134V10.6626C2.00024 10.8964 2.06194 11.1259 2.17891 11.3283C2.29587 11.5306 2.464 11.6987 2.66641 11.8155L7.3313 14.4812Z" stroke="#6B7280" stroke-width="1.33283" stroke-linecap="round" stroke-linejoin="round"/>
<path d="M7.99609 14.6611V7.99695" stroke="#6B7280" stroke-width="1.33283" stroke-linecap="round" stroke-linejoin="round"/>
<path d="M2.19336 4.66492L7.99781 7.99698L13.8023 4.66492" stroke="#6B7280" stroke-width="1.33283" stroke-linecap="round" stroke-linejoin="round"/>
<path d="M4.99805 2.84558L10.9958 6.27761" stroke="#6B7280" stroke-width="1.33283" stroke-linecap="round" stroke-linejoin="round"/>
</g>
<defs>
<clipPath id="clip0_499_17374">
<rect width="15.9939" height="15.9939" fill="white"/>
</clipPath>
</defs>
</svg>
