<svg width="40" height="40" viewBox="0 0 40 40" fill="none" xmlns="http://www.w3.org/2000/svg">
<path d="M0 16C0 7.16344 7.16345 0 16 0H23.9953C32.8319 0 39.9953 7.16345 39.9953 16V23.9953C39.9953 32.8319 32.8319 39.9953 23.9953 39.9953H16C7.16344 39.9953 0 32.8319 0 23.9953V16Z" fill="#226B3E"/>
<path d="M18.9912 27.9946C17.2359 27.9999 15.5428 27.3454 14.2475 26.1607C12.9523 24.9761 12.1496 23.3479 11.9986 21.5992C11.8476 19.8504 12.3594 18.1087 13.4325 16.7196C14.5055 15.3306 16.0614 14.3955 17.7917 14.0999C23.4895 13.0003 24.9889 12.4805 26.9881 10.0015C27.9878 12.0007 28.9874 14.1799 28.9874 17.9984C28.9874 23.4963 24.2092 27.9946 18.9912 27.9946Z" stroke="white" stroke-width="1.99924" stroke-linecap="round" stroke-linejoin="round"/>
<path d="M9.99609 28.9946C9.99609 25.9958 11.8454 23.6367 15.0742 22.9969C17.4932 22.5171 19.9923 20.9977 20.9919 19.998" stroke="white" stroke-width="1.99924" stroke-linecap="round" stroke-linejoin="round"/>
</svg>
