<svg width="12" height="12" viewBox="0 0 12 12" fill="none" xmlns="http://www.w3.org/2000/svg">
<g clip-path="url(#clip0_652_3764)">
<path d="M10.8561 8.99297L6.85941 1.99872C6.77226 1.84495 6.64589 1.71704 6.49317 1.62806C6.34046 1.53907 6.16687 1.49219 5.99012 1.49219C5.81337 1.49219 5.63979 1.53907 5.48707 1.62806C5.33436 1.71704 5.20798 1.84495 5.12084 1.99872L1.12412 8.99297C1.03604 9.14552 0.989847 9.31865 0.990237 9.49481C0.990627 9.67097 1.03758 9.8439 1.12634 9.99606C1.2151 10.1482 1.34252 10.2742 1.49566 10.3613C1.64881 10.4483 1.82225 10.4933 1.9984 10.4917H9.99183C10.1671 10.4916 10.3393 10.4453 10.4911 10.3575C10.6428 10.2697 10.7688 10.1436 10.8564 9.99171C10.944 9.83984 10.99 9.66761 10.99 9.4923C10.9899 9.317 10.9438 9.14479 10.8561 8.99297Z" stroke="#E17100" stroke-width="0.999179" stroke-linecap="round" stroke-linejoin="round"/>
<path d="M5.99414 4.49609V6.49445" stroke="#E17100" stroke-width="0.999179" stroke-linecap="round" stroke-linejoin="round"/>
<path d="M5.99414 8.49316H5.99914" stroke="#E17100" stroke-width="0.999179" stroke-linecap="round" stroke-linejoin="round"/>
</g>
<defs>
<clipPath id="clip0_652_3764">
<rect width="11.9901" height="11.9901" fill="white"/>
</clipPath>
</defs>
</svg>
